# xmcd
#
# Track frame offsets: 
#        150
#        20008
#        36853
#        54640
#
# Disc length: 992 seconds
#
# Revision: 1
# Processed by: cddbd v1.5.2PL0 Copyright (c) Steve Scherf et al.
# Submitted via: ExactAudioCopy v1.0b6
#
DISCID=2f03de04
DTITLE=辻詩音 - Sky chord～大人になる君へ～
DYEAR=2009
DGENRE=JPop
TTITLE0=Sky chord～大人になる君へ～
TTITLE1=Brand new days
TTITLE2=Candy kicks (Acoustic Version)
TTITLE3=Sky chord～大人になる君へ～(instrumantal)
EXTD=
EXTT0=
EXTT1=
EXTT2=
EXTT3=
PLAYORDER=
